<svg xmlns="http://www.w3.org/2000/svg" width="21" height="21" viewBox="0 0 21 21">
  <title>brush</title>
  <g id="df0b27d7-4cc9-46a0-96b2-881d1a44c21a" data-name="Layer 2">
    <g id="a1a26918-9ea8-41b6-b61a-4d171a084100" data-name="Layer 2">
      <g>
        <rect width="21" height="21" fill="none"/>
        <path d="M10.81,6.49l-4,4a6.4,6.4,0,0,1-4-2C1,6.64,1.5.5,1.5.5A3.92,3.92,0,0,0,5.2,2.38,8,8,0,0,1,9,3,3.69,3.69,0,0,1,10.81,6.49Z"/>
        <path d="M19.66,16.88l-7-8.81-1.42-.66-1,1v0L8.53,10.17,7.41,11.29l.66,1.42,8.81,7s1.8,1.56,3.07.29S19.66,16.88,19.66,16.88Z"/>
      </g>
    </g>
  </g>
</svg>
