<svg xmlns="http://www.w3.org/2000/svg" width="21" height="21" viewBox="0 0 21 21">
  <title>hue</title>
  <g id="fe07a3ea-e95c-4e24-b568-158a0f3e5565" data-name="Layer 2">
    <g id="cc99209b-0610-461a-8fca-b8f68120837d" data-name="Layer 2">
      <g>
        <rect width="21" height="21" fill="none"/>
        <g>
          <g>
            <path d="M19,19H16.57A14.57,14.57,0,0,0,2,4.43V2A17,17,0,0,1,19,19Z" fill="#fff"/>
            <path d="M2,2V4.43A14.57,14.57,0,0,1,16.57,19H19A17,17,0,0,0,2,2Z"/>
          </g>
          <g>
            <path d="M14.14,19H11.71A9.71,9.71,0,0,0,2,9.29V6.86A12.15,12.15,0,0,1,14.14,19Z" fill="#fff"/>
            <path d="M2,6.86V9.29A9.71,9.71,0,0,1,11.71,19h2.43A12.15,12.15,0,0,0,2,6.86Z"/>
          </g>
          <g>
            <path d="M9.29,19H6.86A4.86,4.86,0,0,0,2,14.14V11.71A7.29,7.29,0,0,1,9.29,19Z" fill="#fff"/>
            <path d="M2,11.71v2.43A4.86,4.86,0,0,1,6.86,19H9.29A7.29,7.29,0,0,0,2,11.71Z"/>
          </g>
        </g>
      </g>
    </g>
  </g>
</svg>
